:SAMPLES-PER-SECOND 30
:FULLY-SPECIFIED
:DEGREES
124
root  -38.202 40.9772 -13.9008 174.384 28.7427 178.807
RightUpLeg  -5.83366 -41.8243 -16.5311
RightLeg  18.6132 -6.86738 -2.68954
RightFoot  -2.38569 -0.403783 4.95247
RightToes  0.000482159 0.542163 -0.142577
Spine  10.9163 -0.143489 1.29321
Spine1  8.79384 0.703371 -4.12099
HEad  -1.53692 -26.3092 8.02522
LeftShoulder1  8.88994 -14.3329 -43.3552
LeftArm  -18.807 36.8417 -18.8262
LeftForeArm  96.9257 -78.0123 -114.925
LeftHand  -0.25398 0.0180481 5.50724
RightShoulder  5.32113 9.0213 36.4897
RightArm  -10.0537 -17.2146 32.0088
RightForeArm  42.7606 78.1638 80.9169
RightHand  -0.417703 -18.8054 2.33788
LeftUpLeg  6.18134 11.5807 8.59225
LeftLeg  7.36316 40.5591 -3.30958
LeftFoot  -1.6916 0.29396 -3.35434
LeftToes  1.06247e-005 4.65855e-005 -8.18504e-006
125
root  -37.469 40.9476 -13.6592 174.735 32.0488 178.456
RightUpLeg  -3.70678 -40.2231 -19.0661
RightLeg  14.4731 -13.6078 -2.49593
RightFoot  -1.44271 -0.335335 3.76133
RightToes  0.000482159 0.542163 -0.142577
Spine  9.61333 -0.203795 1.70632
Spine1  8.74733 0.43556 -3.25165
HEad  -1.79547 -25.507 8.17487
LeftShoulder1  8.89533 -14.3197 -43.4172
LeftArm  -17.9022 35.597 -19.3426
LeftForeArm  96.3817 -78.1186 -113.978
LeftHand  -0.25398 0.0180481 5.50724
RightShoulder  5.40361 8.97488 37.2846
RightArm  -12.1013 -19.6705 31.2787
RightForeArm  50.906 78.2647 90.4412
RightHand  -0.467658 -19.8549 2.48468
LeftUpLeg  6.80375 12.0295 9.66105
LeftLeg  6.61178 43.3621 -3.611
LeftFoot  -0.330919 0.430802 -4.44885
LeftToes  1.06247e-005 4.65855e-005 -8.18504e-006
126
root  -36.5848 40.9017 -13.388 175.374 35.6078 178.431
RightUpLeg  -1.9695 -32.7126 -20.2708
RightLeg  11.1061 -25.4987 -0.50322
RightFoot  -0.994892 -0.198059 2.10997
RightToes  0.000482159 0.542163 -0.142577
Spine  8.42897 -0.366034 2.12337
Spine1  8.80489 0.0557787 -2.4313
HEad  -2.25876 -24.0321 8.06783
LeftShoulder1  8.91325 -14.2739 -43.6283
LeftArm  -17.2347 34.7767 -19.6352
LeftForeArm  96.1454 -78.1657 -113.549
LeftHand  -0.25398 0.0180481 5.50724
RightShoulder  5.44407 8.93569 37.7307
RightArm  -14.0211 -21.4675 31.2214
RightForeArm  57.2597 78.1486 97.3745
RightHand  -0.589468 -21.0776 3.09074
LeftUpLeg  7.48233 12.6122 11.2268
LeftLeg  5.99751 45.8143 -3.78798
LeftFoot  0.75285 0.586345 -5.58349
LeftToes  1.06247e-005 4.65855e-005 -8.18504e-006
127
root  -35.5504 40.8289 -13.0948 176.132 39.289 178.745
RightUpLeg  -0.93704 -28.5304 -19.6182
RightLeg  8.93645 -31.2869 1.64291
RightFoot  -0.573887 -0.237765 2.46205
RightToes  0.000482159 0.542163 -0.142577
Spine  7.37044 -0.744366 2.54088
Spine1  9.0854 -0.580044 -1.55677
HEad  -2.7265 -21.9358 7.58173
LeftShoulder1  8.99069 -14.2847 -43.9995
LeftArm  -16.9958 34.6788 -19.5077
LeftForeArm  96.3609 -78.1297 -113.889
LeftHand  -0.25398 0.0180481 5.50724
RightShoulder  5.39808 8.85272 37.6548
RightArm  -15.2327 -22.5872 31.6217
RightForeArm  63.0621 77.9238 103.281
RightHand  -0.64305 -22.1622 3.19295
LeftUpLeg  8.74913 13.001 13.1026
LeftLeg  4.54648 47.9459 -4.32853
LeftFoot  2.24041 0.751671 -6.41393
LeftToes  1.06247e-005 4.65855e-005 -8.18504e-006
128
root  -34.4157 40.7252 -12.7349 177.593 44.0508 179.583
RightUpLeg  -1.206 -26.2433 -17.2287
RightLeg  7.69794 -31.9551 3.49874
RightFoot  0.542589 -0.477142 4.60432
RightToes  0.000482159 0.542163 -0.142577
Spine  6.20754 -0.94005 3.54883
Spine1  9.49848 -0.871902 -1.08547
HEad  -3.21843 -19.2315 6.89951
LeftShoulder1  9.07438 -14.3661 -44.2179
LeftArm  -17.2914 35.2377 -19.2322
LeftForeArm  96.6603 -78.0407 -114.636
LeftHand  -0.25398 0.0180481 5.50724
RightShoulder  5.34181 8.82767 37.3001
RightArm  -15.288 -23.0062 31.98
RightForeArm  68.3347 77.5637 108.991
RightHand  -0.507462 -22.8069 2.17299
LeftUpLeg  10.6149 13.549 15.4548
LeftLeg  1.85902 51.62 -5.95496
LeftFoot  4.59195 1.04096 -7.61734
LeftToes  1.06247e-005 4.65855e-005 -8.18504e-006
129
root  -33.2062 40.6255 -12.3736 179.708 49.0317 -178.253
RightUpLeg  -1.32453 -23.9112 -14.0409
RightLeg  6.72409 -30.9718 5.40058
RightFoot  1.68102 -0.626395 5.60722
RightToes  0.000482159 0.542163 -0.142577
Spine  5.41232 -1.34883 5.83897
Spine1  10.3963 -1.15595 -1.28393
HEad  -3.85226 -15.8902 6.0082
LeftShoulder1  9.0331 -14.3529 -44.04
LeftArm  -18.0494 36.1439 -19.4168
LeftForeArm  97.0203 -77.9264 -115.556
LeftHand  -0.25398 0.0180481 5.50724
RightShoulder  5.32436 8.89951 36.9208
RightArm  -14.1669 -22.5449 31.8648
RightForeArm  71.6894 77.1277 113.647
RightHand  -0.199073 -22.7773 0.206895
LeftUpLeg  13.1574 14.7018 19.0152
LeftLeg  0.0724473 54.8499 -7.3423
LeftFoot  5.5434 1.28933 -8.9479
LeftToes  1.06247e-005 4.65855e-005 -8.18504e-006
130
root  -32.0052 40.5485 -12.0045 -177.907 53.7574 -175.3
RightUpLeg  -2.00548 -23.5819 -10.401
RightLeg  7.76158 -27.1439 5.52262
RightFoot  1.43964 -0.435343 3.94018
RightToes  0.000482159 0.542163 -0.142577
Spine  5.8781 -1.97914 8.45927
Spine1  10.9913 -1.51008 -1.87436
HEad  -4.59579 -12.2733 4.98307
LeftShoulder1  8.86132 -14.1707 -43.6271
LeftArm  -18.9009 37.0004 -20.1774
LeftForeArm  97.9044 -77.7715 -116.876
LeftHand  -0.25398 0.0180481 5.50724
RightShoulder  5.33883 9.01678 36.6425
RightArm  -12.4288 -21.2857 31.0991
RightForeArm  72.5085 76.7307 116.704
RightHand  0.190338 -22.127 -2.33813
LeftUpLeg  14.6851 15.6366 22.3049
LeftLeg  2.87847 54.0371 -4.73363
LeftFoot  2.42607 0.99989 -8.2848
LeftToes  1.06247e-005 4.65855e-005 -8.18504e-006
131
root  -30.8676 40.4795 -11.6006 -176.252 57.8574 -172.886
RightUpLeg  -3.07945 -25.0214 -6.98157
RightLeg  10.8074 -21.6866 3.65515
RightFoot  -0.335558 -0.10256 1.01926
RightToes  0.000482159 0.542163 -0.142577
Spine  7.74309 -2.62159 9.65531
Spine1  10.9029 -1.94113 -1.96294
HEad  -5.24223 -9.16506 4.3649
LeftShoulder1  8.74177 -14.0137 -43.4132
LeftArm  -19.2439 37.2957 -20.7625
LeftForeArm  99.1804 -77.5933 -118.4
LeftHand  -0.25398 0.0180481 5.50724
RightShoulder  5.37267 9.15824 36.4393
RightArm  -10.9528 -19.8063 29.9346
RightForeArm  71.5017 76.3971 118.657
RightHand  0.599585 -21.1142 -5.33002
LeftUpLeg  14.1744 16.4076 23.6181
LeftLeg  9.15358 45.4535 1.01472
LeftFoot  -3.88507 0.337849 -4.56515
LeftToes  1.06247e-005 4.65855e-005 -8.18504e-006
132
root  -29.7858 40.4132 -11.1929 -175.523 61.1568 -171.438
RightUpLeg  -3.30214 -24.5161 -4.53994
RightLeg  13.3469 -19.0811 1.87171
RightFoot  -2.55128 0.048553 -0.822982
RightToes  0.000482159 0.542163 -0.142577
Spine  9.84567 -3.07985 9.58373
Spine1  10.8301 -2.27879 -1.45578
HEad  -5.48258 -7.1427 4.58943
LeftShoulder1  8.79428 -14.0589 -43.5695
LeftArm  -18.6711 36.5661 -20.5046
LeftForeArm  99.5889 -77.5299 -118.909
LeftHand  -0.25398 0.0180481 5.50724
RightShoulder  5.39575 9.28708 36.1985
RightArm  -10.358 -18.8126 28.9472
RightForeArm  69.9412 76.1191 120.053
RightHand  0.933035 -20.0421 -8.17628
LeftUpLeg  12.1842 19.954 23.4468
LeftLeg  14.1443 27.6116 4.34399
LeftFoot  -9.6639 0.0544217 -0.798568
LeftToes  1.06247e-005 4.65855e-005 -8.18504e-006
133
root  -28.7083 40.3834 -10.865 -175.131 63.5153 -170.394
RightUpLeg  -1.92689 -20.3816 -3.41085
RightLeg  14.0488 -21.0205 1.68109
RightFoot  -4.50218 0.0140792 -0.715043
RightToes  0.000482159 0.542163 -0.142577
Spine  11.2533 -3.53925 9.80391
Spine1  11.1728 -2.42557 -1.42471
HEad  -4.99456 -6.1228 5.1637
LeftShoulder1  8.92552 -14.2062 -43.8679
LeftArm  -17.3975 34.8683 -19.7351
LeftForeArm  98.0112 -77.7106 -117.299
LeftHand  -0.25398 0.0180481 5.50724
RightShoulder  5.35741 9.29654 35.8753
RightArm  -10.6458 -18.6875 28.5364
RightForeArm  68.9573 75.8999 121.16
RightHand  1.10221 -19.2846 -9.92898
LeftUpLeg  8.72405 22.3478 21.7614
LeftLeg  19.0211 10.2819 4.48413
LeftFoot  -12.2245 0.0628845 -1.01008
LeftToes  1.06247e-005 4.65855e-005 -8.18504e-006
134
root  -27.5941 40.4245 -10.6496 -174.803 65.5065 -169.463
RightUpLeg  0.550148 -15.0334 -2.76754
RightLeg  12.8722 -24.3189 2.75694
RightFoot  -5.91836 -0.0461981 0.113808
RightToes  0.000482159 0.542163 -0.142577
Spine  12.1616 -4.03332 10.8757
Spine1  11.4411 -2.25417 -2.56826
HEad  -3.73955 -5.56743 5.04809
LeftShoulder1  9.00708 -14.2806 -44.095
LeftArm  -16.1336 33.0118 -19.2217
LeftForeArm  95.4628 -77.9958 -114.558
LeftHand  -0.25398 0.0180481 5.50724
RightShoulder  5.26053 9.18006 35.504
RightArm  -11.3578 -19.37 28.5862
RightForeArm  68.8846 75.679 122.383
RightHand  1.16431 -18.9275 -10.6873
LeftUpLeg  4.45655 18.6172 18.567
LeftLeg  24.6461 5.24309 3.02562
LeftFoot  -12.5328 0.0352895 -3.91987
LeftToes  1.06247e-005 4.65855e-005 -8.18504e-006
135
root  -26.4361 40.5575 -10.4917 -175.47 68.0451 -169.841
RightUpLeg  3.37985 -11.3074 -2.42821
RightLeg  10.3597 -25.5684 4.02856
RightFoot  -6.61434 -0.0521986 0.169857
RightToes  0.000482159 0.542163 -0.142577
Spine  12.9756 -4.21173 11.4863
Spine1  11.2265 -1.7329 -4.4676
HEad  -2.33186 -4.90051 3.91056
LeftShoulder1  9.02557 -14.26 -44.2439
LeftArm  -15.5133 31.9694 -19.1635
LeftForeArm  94.9718 -78.0881 -113.719
LeftHand  -0.25398 0.0180481 5.50724
RightShoulder  5.18355 9.11073 35.1293
RightArm  -11.9629 -20.4363 28.7314
RightForeArm  69.2134 75.3905 123.959
RightHand  1.2289 -18.5413 -11.5299
LeftUpLeg  0.654279 17.1212 14.6524
LeftLeg  28.4398 5.9605 3.84962
LeftFoot  -12.6001 0.0169834 -5.36843
LeftToes  1.06247e-005 4.65855e-005 -8.18504e-006
136
root  -25.2398 40.7232 -10.3319 -177.39 71.7447 -171.829
RightUpLeg  6.02554 -9.51009 -2.4948
RightLeg  7.66999 -23.9353 4.68035
RightFoot  -6.94746 -0.0341633 -0.336921
RightToes  0.000482159 0.542163 -0.142577
Spine  13.7099 -3.79612 11.0631
Spine1  10.9356 -0.775499 -6.39286
HEad  -1.64188 -3.82424 2.37619
LeftShoulder1  9.01011 -14.1938 -44.3379
LeftArm  -15.6542 31.9785 -19.2362
LeftForeArm  97.6137 -77.8799 -116.057
LeftHand  -0.25398 0.0180481 5.50724
RightShoulder  5.18283 9.19834 34.8446
RightArm  -12.1848 -21.3284 28.8313
RightForeArm  69.5788 75.1036 125.437
RightHand  1.28645 -17.8214 -12.6592
LeftUpLeg  -2.80355 17.4466 10.1956
LeftLeg  29.8109 9.26976 6.02375
LeftFoot  -12.4341 0.0343601 -4.04504
LeftToes  1.06247e-005 4.65855e-005 -8.18504e-006
137
root  -24.0141 40.8581 -10.169 179.78 75.8376 -174.87
RightUpLeg  8.58493 -8.85388 -2.8658
RightLeg  5.1249 -20.5405 4.87867
RightFoot  -7.3215 -0.0353521 -0.400794
RightToes  0.000482159 0.542163 -0.142577
Spine  14.1599 -3.17045 10.2564
Spine1  10.9624 0.315586 -8.23445
HEad  -1.77612 -2.36297 1.00389
LeftShoulder1  8.96206 -14.0911 -44.3596
LeftArm  -16.2654 32.5161 -19.2708
LeftForeArm  100.625 -77.5475 -119.108
LeftHand  -0.25398 0.0180481 5.50724
RightShoulder  5.23022 9.33032 34.7948
RightArm  -12.1378 -21.7664 29.013
RightForeArm  70.4518 74.9236 126.403
RightHand  1.26097 -17.1387 -13.1049
LeftUpLeg  -6.01757 19.4512 6.15373
LeftLeg  28.4438 10.9603 6.70701
LeftFoot  -11.5657 0.0647442 -3.06336
LeftToes  1.06247e-005 4.65855e-005 -8.18504e-006
138
root  -22.7647 40.9224 -10.0315 176.909 79.4747 -177.718
RightUpLeg  11.4587 -8.28106 -3.12648
RightLeg  2.61719 -17.3477 5.01337
RightFoot  -7.70845 -0.0476141 -0.146449
RightToes  0.000482159 0.542163 -0.142577
Spine  14.5869 -2.75573 9.79904
Spine1  11.1092 1.23181 -10.0637
HEad  -2.05529 -0.636897 -0.263996
LeftShoulder1  8.89324 -13.9573 -44.3564
LeftArm  -17.0922 33.0719 -19.3783
LeftForeArm  101.754 -77.3356 -120.668
LeftHand  -0.25398 0.0180481 5.50724
RightShoulder  5.28444 9.38837 35.0283
RightArm  -12.1498 -21.9331 29.3548
RightForeArm  72.3835 74.7593 127.398
RightHand  1.19225 -17.0533 -12.5529
LeftUpLeg  -8.64638 22.3361 2.93453
LeftLeg  24.6395 10.0359 5.41102
LeftFoot  -10.8073 0.0840663 -4.06594
LeftToes  1.06247e-005 4.65855e-005 -8.18504e-006
